# File created by Blade
# Date/Time:  Mon Sep 22 15:50:36 2014
# Frame Rate: 120.000 fps
#------------------------------------------------------
:FULLY-SPECIFIED
:DEGREES
2897
root 2.264449 37.005291 3.996218 2.885253 -6.445555 1.522266
RightUpLeg 6.345705 -4.647024 -3.899896
RightLeg -5.581427 -0.000000 0.000000
RightFoot -12.170465 -13.329890 16.187261
RightToeBase 14.274008 -0.000000 -0.000000
LeftUpLeg 6.394034 3.922134 0.890332
LeftLeg -3.717698 -0.000000 0.000000
LeftFoot -11.273003 15.244648 -18.351277
LeftToeBase 8.802197 -0.000000 -0.000000
Spine -1.975424 11.420692 -0.578640
RightShoulder 2.060196 -28.435963 -11.838285
RightArm 16.102424 -21.751272 70.808729
RightForeArm 12.641908 0.000000 41.848980
RightHand 3.904562 -0.000000 -2.933977
RightHandThumb1 -24.326973 -0.000000 -32.862282
LeftShoulder -35.943748 31.582045 5.200722
LeftArm 115.604923 -63.418727 -153.273396
LeftForeArm -65.681181 -0.000000 133.315571
LeftHand -3.849995 0.000000 -21.204027
LeftHandThumb1 -26.253704 0.000000 33.147579
Head 19.916738 9.630762 7.574510
2898
root 2.254780 37.006399 3.990529 2.912903 -6.508782 1.498857
RightUpLeg 6.304133 -4.665303 -3.867656
RightLeg -5.584834 -0.000000 0.000000
RightFoot -12.124858 -13.256809 16.167101
RightToeBase 14.228861 -0.000000 -0.000000
LeftUpLeg 6.367606 3.872309 0.921130
LeftLeg -3.712523 -0.000000 0.000000
LeftFoot -11.310127 15.321943 -18.408021
LeftToeBase 8.793832 -0.000000 -0.000000
Spine -1.981461 11.418425 -0.606415
RightShoulder 2.070073 -28.429913 -11.850036
RightArm 16.021000 -21.591395 70.913265
RightForeArm 12.688067 -0.000000 41.819373
RightHand 3.959710 -0.000000 -3.017144
RightHandThumb1 -24.326973 -0.000000 -32.862282
LeftShoulder -35.752464 31.415980 5.393730
LeftArm 115.116179 -63.937211 -152.593715
LeftForeArm -65.552351 0.000000 131.167134
LeftHand -3.876136 -0.000000 -20.759388
LeftHandThumb1 -26.253704 0.000000 33.147579
Head 19.867027 9.678164 7.609201
2899
root 2.244936 37.006856 3.986113 2.927237 -6.581726 1.473553
RightUpLeg 6.272638 -4.656105 -3.831189
RightLeg -5.585109 -0.000000 0.000000
RightFoot -12.077396 -13.208752 16.124072
RightToeBase 14.184667 -0.000000 -0.000000
LeftUpLeg 6.373611 3.855238 0.958459
LeftLeg -3.734443 -0.000000 0.000000
LeftFoot -11.333551 15.367740 -18.466963
LeftToeBase 8.804831 -0.000000 -0.000000
Spine -1.970305 11.430417 -0.620481
RightShoulder 2.092744 -28.425720 -11.886725
RightArm 15.953139 -21.455826 71.008954
RightForeArm 12.765530 -0.000000 41.783209
RightHand 3.890530 -0.000000 -3.066820
RightHandThumb1 -24.326973 -0.000000 -32.862282
LeftShoulder -35.574671 31.273621 5.564650
LeftArm 114.612517 -64.463873 -151.858213
LeftForeArm -65.298335 -0.000000 128.812625
LeftHand -3.888044 -0.000000 -20.306272
LeftHandThumb1 -26.253704 0.000000 33.147579
Head 19.808649 9.726229 7.619813
2900
root 2.235818 37.007953 3.981041 2.938460 -6.655996 1.456629
RightUpLeg 6.229686 -4.658543 -3.806038
RightLeg -5.557973 -0.000000 0.000000
RightFoot -12.066730 -13.125871 16.124626
RightToeBase 14.219239 -0.000000 -0.000000
LeftUpLeg 6.413868 3.694594 0.970825
LeftLeg -3.827758 -0.000000 0.000000
LeftFoot -11.357738 15.574736 -18.572492
LeftToeBase 8.827265 -0.000000 -0.000000
Spine -1.946324 11.447925 -0.647775
RightShoulder 2.099681 -28.448383 -11.911260
RightArm 15.948781 -21.344130 71.047316
RightForeArm 12.831254 -0.000000 41.717581
RightHand 3.944644 0.000000 -3.041446
RightHandThumb1 -24.326973 -0.000000 -32.862282
LeftShoulder -35.478032 31.187325 5.653966
LeftArm 114.115604 -64.883197 -151.092742
LeftForeArm -65.050674 -0.000000 126.316205
LeftHand -4.041266 -0.000000 -19.664538
LeftHandThumb1 -26.253704 0.000000 33.147579
Head 19.726775 9.728982 7.602593
2901
root 2.225669 37.010386 3.977037 2.948708 -6.728661 1.420132
RightUpLeg 6.189622 -4.610785 -3.757713
RightLeg -5.520068 -0.000000 0.000000
RightFoot -12.056058 -13.103304 16.127120
RightToeBase 14.238445 -0.000000 -0.000000
LeftUpLeg 6.418090 3.755793 1.016839
LeftLeg -3.836137 -0.000000 0.000000
LeftFoot -11.349741 15.592767 -18.574935
LeftToeBase 8.789661 -0.000000 -0.000000
Spine -1.925978 11.461759 -0.631020
RightShoulder 2.146048 -28.450164 -11.969805
RightArm 15.906007 -21.259684 71.093765
RightForeArm 12.872964 -0.000000 41.666912
RightHand 3.821406 0.000000 -3.069907
RightHandThumb1 -24.326973 -0.000000 -32.862282
LeftShoulder -35.292532 31.045534 5.806178
LeftArm 113.671338 -65.424290 -150.370861
LeftForeArm -64.761483 -0.000000 123.650688
LeftHand -4.069806 -0.000000 -19.244333
LeftHandThumb1 -26.253704 0.000000 33.147579
Head 19.670540 9.805971 7.616094
2902
root 2.215449 37.011766 3.973843 2.947085 -6.805940 1.397959
RightUpLeg 6.168711 -4.558534 -3.723309
RightLeg -5.506133 -0.000000 0.000000
RightFoot -12.038578 -13.077740 16.114568
RightToeBase 14.241065 -0.000000 -0.000000
LeftUpLeg 6.422212 3.777122 1.046136
LeftLeg -3.823159 -0.000000 0.000000
LeftFoot -11.377099 15.649950 -18.596125
LeftToeBase 8.823189 -0.000000 -0.000000
Spine -1.895292 11.518452 -0.635372
RightShoulder 2.169984 -28.486358 -12.006457
RightArm 15.895788 -21.187910 71.105208
RightForeArm 12.897310 -0.000000 41.613150
RightHand 3.813033 -0.000000 -3.029907
RightHandThumb1 -24.326973 -0.000000 -32.862282
LeftShoulder -35.085653 30.907587 5.997303
LeftArm 113.156300 -65.933699 -149.579985
LeftForeArm -64.321705 -0.000000 120.822218
LeftHand -4.201504 -0.000000 -18.512764
LeftHandThumb1 -26.253704 0.000000 33.147579
Head 19.582545 9.878772 7.639987
2903
root 2.204675 37.012884 3.970471 2.941022 -6.880736 1.384075
RightUpLeg 6.158103 -4.429136 -3.688897
RightLeg -5.503771 -0.000000 0.000000
RightFoot -12.042993 -13.146999 16.111615
RightToeBase 14.239042 -0.000000 -0.000000
LeftUpLeg 6.368826 3.949473 1.078908
LeftLeg -3.684520 -0.000000 0.000000
LeftFoot -11.371173 15.544434 -18.505353
LeftToeBase 8.663426 -0.000000 -0.000000
Spine -1.840303 11.579805 -0.653157
RightShoulder 2.165966 -28.473090 -12.020093
RightArm 15.859292 -21.177031 71.093415
RightForeArm 12.994264 -0.000000 41.551114
RightHand 3.769666 -0.000000 -2.800779
RightHandThumb1 -24.326973 -0.000000 -32.862282
LeftShoulder -34.922066 30.733222 6.182216
LeftArm 112.649110 -66.409435 -148.745359
LeftForeArm -63.835637 -0.000000 117.819551
LeftHand -4.561819 -0.000000 -17.787325
LeftHandThumb1 -26.253704 0.000000 33.147579
Head 19.479713 9.801246 7.585569
2904
root 2.191745 37.015406 3.966204 2.950162 -6.953834 1.343591
RightUpLeg 6.108373 -4.441260 -3.635075
RightLeg -5.449471 -0.000000 0.000000
RightFoot -12.021079 -13.058383 16.115671
RightToeBase 14.246393 -0.000000 -0.000000
LeftUpLeg 6.353590 4.041930 1.135441
LeftLeg -3.660223 -0.000000 0.000000
LeftFoot -11.418108 15.544202 -18.573421
LeftToeBase 8.768845 -0.000000 -0.000000
Spine -1.811202 11.654226 -0.631382
RightShoulder 2.173471 -28.511186 -12.050435
RightArm 15.866547 -21.138303 71.070104
RightForeArm 12.969666 -0.000000 41.477614
RightHand 3.716910 -0.000000 -2.678212
RightHandThumb1 -24.326973 -0.000000 -32.862282
LeftShoulder -34.752093 30.612250 6.350584
LeftArm 112.126350 -66.836985 -147.884876
LeftForeArm -63.354260 -0.000000 114.639620
LeftHand -4.801024 0.000000 -17.025213
LeftHandThumb1 -26.253704 0.000000 33.147579
Head 19.384686 9.838970 7.582167
2905
root 2.181134 37.017080 3.963919 2.943790 -7.029650 1.320910
RightUpLeg 6.086857 -4.385621 -3.601131
RightLeg -5.417112 -0.000000 0.000000
RightFoot -12.009884 -13.035039 16.099747
RightToeBase 14.241479 -0.000000 -0.000000
LeftUpLeg 6.382695 4.040386 1.166180
LeftLeg -3.685646 -0.000000 0.000000
LeftFoot -11.427882 15.612017 -18.620045
LeftToeBase 8.791026 -0.000000 -0.000000
Spine -1.771255 11.737261 -0.621499
RightShoulder 2.195080 -28.528180 -12.093266
RightArm 15.851941 -21.144501 71.037570
RightForeArm 13.004512 -0.000000 41.392598
RightHand 3.702762 0.000000 -2.605229
RightHandThumb1 -24.326973 -0.000000 -32.862282
LeftShoulder -34.512937 30.445296 6.628911
LeftArm 111.463908 -67.369683 -146.917192
LeftForeArm -62.756128 -0.000000 111.319612
LeftHand -4.945032 -0.000000 -16.114977
LeftHandThumb1 -26.253704 0.000000 33.147579
Head 19.296785 9.902577 7.590683
2906
root 2.168573 37.018614 3.965262 2.908343 -7.091311 1.298528
RightUpLeg 6.113498 -4.325614 -3.565817
RightLeg -5.406572 -0.000000 0.000000
RightFoot -12.006207 -13.024577 16.100841
RightToeBase 14.271663 -0.000000 -0.000000
LeftUpLeg 6.426588 4.140508 1.210037
LeftLeg -3.675004 -0.000000 0.000000
LeftFoot -11.415181 15.581697 -18.632829
LeftToeBase 8.770869 -0.000000 -0.000000
Spine -1.695125 11.822411 -0.602585
RightShoulder 2.192394 -28.555949 -12.129155
RightArm 15.868252 -21.169815 70.991085
RightForeArm 12.952533 -0.000000 41.298775
RightHand 3.526802 0.000000 -2.443308
RightHandThumb1 -24.326973 -0.000000 -32.862282
LeftShoulder -34.347166 30.347390 6.788792
LeftArm 110.986550 -67.755847 -146.010081
LeftForeArm -62.219969 -0.000000 107.807657
LeftHand -5.354869 0.000000 -15.150612
LeftHandThumb1 -26.253704 0.000000 33.147579
Head 19.205203 9.934503 7.567355
2907
root 2.159046 37.019878 3.966669 2.878236 -7.135711 1.286209
RightUpLeg 6.137044 -4.273969 -3.542462
RightLeg -5.398280 -0.000000 0.000000
RightFoot -12.005781 -13.030835 16.106877
RightToeBase 14.263142 -0.000000 -0.000000
LeftUpLeg 6.450701 4.239162 1.237937
LeftLeg -3.642637 -0.000000 0.000000
LeftFoot -11.415590 15.547072 -18.615948
LeftToeBase 8.768072 -0.000000 -0.000000
Spine -1.632687 11.888765 -0.579685
RightShoulder 2.213412 -28.569005 -12.187096
RightArm 15.859490 -21.217959 70.946990
RightForeArm 13.088284 -0.000000 41.188943
RightHand 3.651397 -0.000000 -2.555785
RightHandThumb1 -24.326973 -0.000000 -32.862282
LeftShoulder -34.117419 30.238674 7.028190
LeftArm 110.462435 -68.233488 -145.071075
LeftForeArm -61.668114 -0.000000 104.093587
LeftHand -5.649487 0.000000 -14.243640
LeftHandThumb1 -26.253704 0.000000 33.147579
Head 19.122559 9.961125 7.531227
2908
root 2.148370 37.020901 3.967503 2.857845 -7.164807 1.271831
RightUpLeg 6.144387 -4.293001 -3.517096
RightLeg -5.372242 -0.000000 0.000000
RightFoot -11.994326 -12.985927 16.083208
RightToeBase 14.257979 -0.000000 -0.000000
LeftUpLeg 6.472683 4.269541 1.266737
LeftLeg -3.628698 -0.000000 0.000000
LeftFoot -11.422214 15.550504 -18.627429
LeftToeBase 8.774348 -0.000000 -0.000000
Spine -1.573342 11.921845 -0.555647
RightShoulder 2.242487 -28.546165 -12.249317
RightArm 15.825602 -21.260768 70.917371
RightForeArm 13.121503 0.000000 41.075819
RightHand 3.698960 -0.000000 -2.558594
RightHandThumb1 -24.326973 -0.000000 -32.862282
LeftShoulder -33.967690 30.157047 7.234233
LeftArm 109.860024 -68.648423 -143.990415
LeftForeArm -61.184646 0.000000 100.153697
LeftHand -5.853768 -0.000000 -13.380058
LeftHandThumb1 -26.253704 0.000000 33.147579
Head 19.033488 9.989812 7.477289
